<svg width="48" height="48" viewBox="0 0 48 48" fill="none" xmlns="http://www.w3.org/2000/svg">
<path fill-rule="evenodd" clip-rule="evenodd" d="M27.7071 18.2929C28.0976 18.6834 28.0976 19.3166 27.7071 19.7071C27.3166 20.0976 26.6834 20.0976 26.2929 19.7071L25 18.4142V28C25 28.5523 24.5523 29 24 29C23.4477 29 23 28.5523 23 28L23 18.4142L21.7071 19.7071C21.3166 20.0976 20.6834 20.0976 20.2929 19.7071C19.9024 19.3166 19.9024 18.6834 20.2929 18.2929L23.2929 15.2929C23.6834 14.9024 24.3166 14.9024 24.7071 15.2929L27.7071 18.2929ZM33 26C33 25.4477 32.5523 25 32 25C31.4477 25 31 25.4477 31 26V31L17 31L17 26C17 25.4477 16.5523 25 16 25C15.4477 25 15 25.4477 15 26V32C15 32.5523 15.4477 33 16 33H32C32.5523 33 33 32.5523 33 32V26Z" fill="#595959"/>
</svg>
