<svg width="48" height="48" viewBox="0 0 48 48" fill="none" xmlns="http://www.w3.org/2000/svg">
<path fill-rule="evenodd" clip-rule="evenodd" d="M27.7982 15C28.011 15.9811 27.5088 17.1352 26.9121 17.8714C26.3451 18.5839 25.2468 19.3256 24.2982 19.1311C24.069 18.1917 24.6434 17.0528 25.2285 16.3733C25.8599 15.6015 26.9232 15.034 27.7982 15ZM25.4027 20.0976C25.9267 19.7649 26.5853 19.3468 27.5323 19.3468C28.0308 19.3468 29.8361 19.3922 31.0102 21.14C31.0016 21.1468 30.9786 21.1604 30.9439 21.1809C30.5761 21.398 28.8873 22.3951 28.8873 24.5C28.8873 27.1784 31.4643 28.1992 31.4643 28.1992C31.4532 28.2673 31.0988 29.4931 30.257 30.7528C29.5149 31.8537 28.7285 32.9773 27.5323 32.9773C26.9806 32.9773 26.6747 32.8228 26.3451 32.6563C25.9601 32.4618 25.5428 32.2509 24.6637 32.2509C23.7648 32.2509 23.2984 32.4782 22.8793 32.6823C22.5375 32.8489 22.2272 33 21.7396 33C20.6541 33 19.8899 31.9672 19.0149 30.7074C18.007 29.2207 17.1763 26.9281 17.1763 24.7377C17.1763 21.2535 19.4025 19.3922 21.5845 19.3922C22.2257 19.3922 22.8285 19.7354 23.3631 20.0397C23.789 20.2822 24.1715 20.5 24.4957 20.5C24.7689 20.5 25.0564 20.3174 25.4027 20.0976Z" fill="#595959"/>
</svg>
