<svg width="48" height="48" viewBox="0 0 48 48" fill="none" xmlns="http://www.w3.org/2000/svg">
<path fill-rule="evenodd" clip-rule="evenodd" d="M30.8478 25.4587C30.1767 28.6246 27.3658 31 24 31C22.3184 31 20.7753 30.4071 19.5684 29.4189L24.3604 25.0262L30.8478 25.4587ZM30.9797 23.4631L25 23.0644V17.0709C28.2185 17.5313 30.7308 20.181 30.9797 23.4631ZM23 17.0709C19.6077 17.5561 17 20.4735 17 24C17 25.4632 17.449 26.8216 18.2166 27.9449L23 23.5601V17.0709ZM33 24C33 28.9706 28.9706 33 24 33C19.0294 33 15 28.9706 15 24C15 19.0294 19.0294 15 24 15C28.9706 15 33 19.0294 33 24Z" fill="#595959"/>
</svg>
