<svg width="48" height="48" viewBox="0 0 48 48" fill="none" xmlns="http://www.w3.org/2000/svg">
<path fill-rule="evenodd" clip-rule="evenodd" d="M23.3503 17.2274C21.2197 15.2416 17.8052 17.2129 18.4597 20.051C18.5721 20.5385 18.2884 21.0299 17.81 21.1763C15.0249 22.0286 15.0249 25.9713 17.81 26.8236C18.2884 26.97 18.5721 27.4614 18.4597 27.9489C17.8052 30.787 21.2197 32.7584 23.3503 30.7725C23.7163 30.4314 24.2837 30.4314 24.6497 30.7725C26.7803 32.7584 30.1949 30.787 29.5404 27.9489C29.428 27.4614 29.7117 26.97 30.1901 26.8236C32.9752 25.9713 32.9752 22.0286 30.1901 21.1763C29.7117 21.0299 29.428 20.5385 29.5404 20.051C30.1949 17.2129 26.7803 15.2416 24.6497 17.2274C24.2837 17.5685 23.7163 17.5685 23.3503 17.2274ZM20.4085 19.6016C20.1973 18.6858 21.2992 18.0496 21.9867 18.6905C23.1208 19.7475 24.8792 19.7475 26.0133 18.6905C26.7009 18.0496 27.8027 18.6858 27.5915 19.6016C27.2431 21.1123 28.1224 22.6352 29.6048 23.0888C30.5036 23.3638 30.5036 24.6361 29.6048 24.9111C28.1224 25.3648 27.2431 26.8876 27.5915 28.3983C27.8027 29.3141 26.7009 29.9503 26.0133 29.3095C24.8792 28.2524 23.1208 28.2524 21.9867 29.3095C21.2992 29.9503 20.1973 29.3141 20.4085 28.3983C20.7569 26.8876 19.8777 25.3648 18.3952 24.9111C17.4965 24.6361 17.4965 23.3638 18.3952 23.0888C19.8777 22.6352 20.7569 21.1123 20.4085 19.6016ZM24.866 23.5C25.1422 23.9782 24.9783 24.5898 24.5 24.866C24.0217 25.1421 23.4101 24.9782 23.134 24.5C22.8578 24.0217 23.0217 23.4101 23.5 23.1339C23.9783 22.8578 24.5899 23.0217 24.866 23.5ZM26.5981 22.5C27.4265 23.9348 26.9349 25.7696 25.5 26.598C24.0651 27.4265 22.2304 26.9348 21.4019 25.5C20.5735 24.0651 21.0651 22.2303 22.5 21.4019C23.9349 20.5735 25.7697 21.0651 26.5981 22.5Z" fill="#595959"/>
</svg>
