<svg width="28" height="28" viewBox="0 0 28 28" fill="none" xmlns="http://www.w3.org/2000/svg">
<path fill-rule="evenodd" clip-rule="evenodd" d="M14.0099 0C21.4958 0 27.6104 5.8672 28 13.2509C26.7007 14.5071 25.288 15.6133 23.6585 16.4353C22.8917 16.8228 22.1118 17.0789 21.2136 16.5009C21.1386 16.324 21.0593 16.1271 20.976 15.9201C20.8913 15.7098 20.8025 15.4891 20.7097 15.2684C20.6454 15.1172 20.5827 14.965 20.5199 14.8127C20.3344 14.363 20.1485 13.9121 19.921 13.482C19.4062 12.5034 18.6329 12.2232 17.6536 12.7223C17.0906 13.0446 16.5491 13.4029 16.0324 13.7951C15.8378 13.9292 15.6484 14.0696 15.3869 14.2634C15.2687 14.3511 15.1357 14.4496 14.9808 14.5635C15.0359 14.191 15.0833 13.8442 15.1281 13.5157L15.1281 13.5157C15.2258 12.7997 15.3117 12.1702 15.4409 11.5489C15.6349 10.7415 15.7334 9.91416 15.7345 9.08382C15.7191 8.54746 15.5942 8.08772 15.1736 7.75277C13.9972 7.46817 13.2326 7.92791 12.5754 8.88023C11.2914 10.7228 10.1426 12.6558 9.13802 14.6642C8.90545 15.1439 8.63736 15.6064 8.36967 16.0682L8.36965 16.0682C8.24399 16.285 8.11841 16.5017 7.99664 16.7199L7.77756 16.6323C7.85129 16.3146 7.92419 15.9957 7.99716 15.6764L7.99724 15.676C8.0912 15.265 8.18529 14.8533 8.28145 14.4431C8.69112 12.6851 9.10081 10.9315 9.87634 9.28523C10.2378 8.51681 10.1217 8.26067 9.29359 7.71555C8.64512 7.73088 8.32964 8.22783 8.11056 8.70071C7.74436 9.52271 7.43116 10.3673 7.1729 11.2293C6.64407 12.9518 6.28959 14.723 6.11477 16.5163C6.00085 17.6131 5.88253 18.7602 6.53977 19.8549H7.59135C7.68994 19.6952 7.79039 19.5404 7.88936 19.3879L7.88943 19.3878L7.88944 19.3878C8.07415 19.1031 8.2537 18.8264 8.40631 18.5413C8.84917 17.7031 9.28491 16.8616 9.72067 16.0201L9.72076 16.0199C10.2809 14.9381 10.841 13.8563 11.4164 12.7814C11.9561 11.6956 12.6562 10.697 13.4933 9.8194C13.4813 9.95955 13.4735 10.0802 13.4665 10.1875C13.4529 10.3955 13.4426 10.5538 13.4122 10.7082C13.0359 12.4728 12.8465 14.272 12.847 16.0762C12.8602 17.103 13.042 17.3175 14.1615 17.7313C14.4419 17.6108 14.7061 17.4556 14.948 17.2694C15.5283 16.7191 16.0748 16.1342 16.5845 15.518C17.1173 14.8058 17.8357 14.2537 18.6613 13.922C18.6775 13.9489 18.6946 13.9768 18.7123 14.0056L18.7123 14.0057L18.7124 14.0057C18.7782 14.1133 18.852 14.2339 18.9176 14.3599C19.0216 14.5594 19.1222 14.7623 19.223 14.9657L19.2231 14.9658C19.3944 15.3112 19.5664 15.6582 19.7567 15.993C20.4884 17.2825 21.7744 17.8167 23.1809 17.346C23.9961 17.0551 24.7891 16.7054 25.5535 16.2995C26.1216 16.0082 26.6813 15.6845 27.2844 15.3358C27.5122 15.204 27.7463 15.0687 27.9893 14.9302C27.5102 22.2285 21.4345 28 14.0099 28C6.27243 28 0 21.732 0 14C0 6.26801 6.27243 0 14.0099 0Z" fill="#FF004D"/>
</svg>
