<svg width="16" height="17" viewBox="0 0 16 17"  xmlns="http://www.w3.org/2000/svg">
<path fill-rule="evenodd" clip-rule="evenodd" d="M11 5.5C11 7.15685 9.65685 8.5 8 8.5C6.34315 8.5 5 7.15685 5 5.5C5 3.84315 6.34315 2.5 8 2.5C9.65685 2.5 11 3.84315 11 5.5ZM13 5.5C13 8.26142 10.7614 10.5 8 10.5C5.23858 10.5 3 8.26142 3 5.5C3 2.73858 5.23858 0.5 8 0.5C10.7614 0.5 13 2.73858 13 5.5ZM15.9862 16.002C15.9147 15.4452 15.784 14.9065 15.6007 14.392C15.1403 13.1004 14.3475 11.9619 13.323 11.0752C13.2523 11.0141 13.1805 10.9541 13.1076 10.8953L13.0989 10.8883C13.058 10.8554 13.0166 10.8228 12.975 10.7906C12.8368 10.6839 12.6693 10.6181 12.4948 10.6121C11.9838 10.5947 11.7243 10.7137 11.5246 10.9395C11.1654 11.3456 11.3611 11.988 11.7565 12.3683C11.7704 12.3817 11.7846 12.3948 11.799 12.4075C11.8142 12.4209 11.8297 12.434 11.8454 12.4466C11.8932 12.485 11.9403 12.5242 11.9868 12.5639C12.1474 12.7014 12.3004 12.8469 12.4452 12.9998C12.9892 13.5745 13.4166 14.2536 13.693 14.9998H11.4762H4.5229H2.30604C2.58242 14.2536 3.00988 13.5745 3.55386 12.9998C3.69653 12.8491 3.84721 12.7056 4.00528 12.5699C4.05422 12.5279 4.10387 12.4867 4.1542 12.4462C4.16987 12.4336 4.18531 12.4206 4.20048 12.4072C4.21483 12.3945 4.22896 12.3815 4.24284 12.3681C4.63843 11.9879 4.83443 11.3455 4.47518 10.9393C4.27556 10.7136 4.01604 10.5945 3.50495 10.6118C3.33034 10.6177 3.16276 10.6835 3.02448 10.7903C2.98294 10.8224 2.94174 10.8549 2.90087 10.8877L2.89191 10.8949C2.81357 10.9581 2.73647 11.0227 2.66065 11.0886C1.64357 11.9734 0.856466 13.1069 0.398401 14.392C0.215026 14.9065 0.0843839 15.4452 0.0128303 16.002C-0.0575639 16.5498 0.396906 16.9998 0.94919 16.9998H2.30604H13.693H15.0499C15.6021 16.9998 16.0566 16.5498 15.9862 16.002Z" fill="#595959"/>
</svg>
