<svg width="18" height="19" viewBox="0 0 18 19" fill="none" xmlns="http://www.w3.org/2000/svg">
<path fill-rule="evenodd" clip-rule="evenodd" d="M16 8.5C16 11.8137 13.3137 14.5 10 14.5C6.68629 14.5 4 11.8137 4 8.5C4 5.18629 6.68629 2.5 10 2.5C13.3137 2.5 16 5.18629 16 8.5ZM18 8.5C18 12.9183 14.4183 16.5 10 16.5C8.15129 16.5 6.44904 15.8729 5.09436 14.8199L1.70711 18.2071C1.31658 18.5976 0.683418 18.5976 0.292893 18.2071C-0.0976311 17.8166 -0.0976311 17.1834 0.292893 16.7929L3.68014 13.4056C2.62708 12.051 2 10.3487 2 8.5C2 4.08172 5.58172 0.5 10 0.5C14.4183 0.5 18 4.08172 18 8.5Z" fill="#595959"/>
</svg>
