<svg width="18" height="16" viewBox="0 0 18 16" fill="none" xmlns="http://www.w3.org/2000/svg">
<path fill-rule="evenodd" clip-rule="evenodd" d="M8.35033 1.22741C6.2197 -0.758445 2.80517 1.21293 3.45966 4.05104C3.57207 4.53852 3.28835 5.02994 2.80997 5.17632C0.0248564 6.02858 0.0248572 9.97134 2.80997 10.8236C3.28835 10.97 3.57207 11.4614 3.45966 11.9489C2.80517 14.787 6.2197 16.7584 8.35033 14.7725C8.7163 14.4314 9.28373 14.4314 9.6497 14.7725C11.7803 16.7584 15.1949 14.787 14.5404 11.9489C14.428 11.4614 14.7117 10.97 15.1901 10.8236C17.9752 9.97134 17.9752 6.02858 15.1901 5.17633C14.7117 5.02994 14.428 4.53852 14.5404 4.05104C15.1949 1.21293 11.7803 -0.758444 9.6497 1.22741C9.28373 1.56851 8.71629 1.56851 8.35033 1.22741ZM5.40851 3.60162C5.19731 2.68578 6.29915 2.04963 6.98669 2.69045C8.12079 3.74749 9.87923 3.74749 11.0133 2.69045C11.7009 2.04963 12.8027 2.68578 12.5915 3.60162C12.2431 5.1123 13.1224 6.63515 14.6048 7.08879C15.5036 7.36381 15.5036 8.63611 14.6048 8.91112C13.1224 9.36476 12.2431 10.8876 12.5915 12.3983C12.8027 13.3141 11.7009 13.9503 11.0133 13.3095C9.87923 12.2524 8.12079 12.2524 6.9867 13.3095C6.29916 13.9503 5.19731 13.3141 5.40851 12.3983C5.75688 10.8876 4.87766 9.36476 3.39519 8.91112C2.49645 8.63611 2.49645 7.36381 3.39519 7.08879C4.87766 6.63515 5.75688 5.1123 5.40851 3.60162ZM9.86604 7.49996C10.1422 7.97825 9.9783 8.58984 9.50001 8.86598C9.02172 9.14212 8.41013 8.97825 8.13399 8.49996C7.85784 8.02166 8.02172 7.41007 8.50001 7.13393C8.9783 6.85779 9.5899 7.02166 9.86604 7.49996ZM11.5981 6.49996C12.4265 7.93484 11.9349 9.76961 10.5 10.598C9.06513 11.4265 7.23036 10.9348 6.40194 9.49996C5.57351 8.06508 6.06513 6.23031 7.50001 5.40188C8.93489 4.57345 10.7697 5.06508 11.5981 6.49996Z" fill="#595959"/>
</svg>
